<?xml version="1.0" encoding="utf-8"?><svg viewBox="0 0 22 22" xmlns="http://www.w3.org/2000/svg" xmlns:xlink="http://www.w3.org/1999/xlink"><style>:root>svg{display:none}:root>svg:target{display:block}</style><svg viewBox="0 0 22 22" id="close" xmlns="http://www.w3.org/2000/svg"><path fill-rule="evenodd" clip-rule="evenodd" d="M17.472 5.5L5.5 17.472l-.972-.972L16.5 4.528l.972.972z"/><path fill-rule="evenodd" clip-rule="evenodd" d="M5.5 4.528L17.472 16.5l-.972.972L4.528 5.5l.972-.972z"/></svg><svg viewBox="0 0 16 16" id="menu" xmlns="http://www.w3.org/2000/svg"><path d="M3 11h2v2H3v-2zM7 11h2v2H7v-2zM11 3h2v2h-2V3zM11 7h2v2h-2V7zM3 3h2v2H3V3zM7 3h2v2H7V3zM3 7h2v2H3V7zM7 7h2v2H7V7zM11 11h2v2h-2v-2z"/></svg></svg>